<mxfile host="65bd71144e">
    <diagram id="0-X8q_VyVmv80k9dIGTi" name="Page-1">
        <mxGraphModel dx="876" dy="617" grid="1" gridSize="10" guides="1" tooltips="1" connect="1" arrows="1" fold="1" page="1" pageScale="1" pageWidth="850" pageHeight="1100" math="0" shadow="0">
            <root>
                <mxCell id="0"/>
                <mxCell id="1" parent="0"/>
                <mxCell id="2" value=":Halaman Logout()" style="rounded=0;whiteSpace=wrap;html=1;fillColor=none;strokeWidth=3;fontSize=13;fontStyle=1" vertex="1" parent="1">
                    <mxGeometry x="120" y="40" width="210" height="60" as="geometry"/>
                </mxCell>
                <mxCell id="4" value="" style="endArrow=classic;html=1;strokeWidth=3;fontSize=13;fontStyle=1;entryX=0;entryY=0.144;entryDx=0;entryDy=0;entryPerimeter=0;" edge="1" parent="1" target="12">
                    <mxGeometry width="50" height="50" relative="1" as="geometry">
                        <mxPoint x="41" y="160" as="sourcePoint"/>
                        <mxPoint x="230" y="150" as="targetPoint"/>
                    </mxGeometry>
                </mxCell>
                <mxCell id="5" value="" style="endArrow=classic;html=1;entryX=1.1;entryY=0.608;entryDx=0;entryDy=0;entryPerimeter=0;dashed=1;exitX=0.1;exitY=0.692;exitDx=0;exitDy=0;exitPerimeter=0;strokeWidth=3;fontSize=13;fontStyle=1" edge="1" parent="1" source="12" target="10">
                    <mxGeometry width="50" height="50" relative="1" as="geometry">
                        <mxPoint x="230" y="200" as="sourcePoint"/>
                        <mxPoint x="240" y="172" as="targetPoint"/>
                    </mxGeometry>
                </mxCell>
                <mxCell id="6" value="Klik Logout()" style="text;html=1;align=center;verticalAlign=middle;whiteSpace=wrap;rounded=0;strokeWidth=3;fontSize=13;fontStyle=1" vertex="1" parent="1">
                    <mxGeometry x="70" y="130" width="130" height="30" as="geometry"/>
                </mxCell>
                <mxCell id="7" value="Logout berhasil()" style="text;html=1;align=center;verticalAlign=middle;resizable=0;points=[];autosize=1;strokeColor=none;fillColor=none;strokeWidth=3;fontSize=13;fontStyle=1" vertex="1" parent="1">
                    <mxGeometry x="75" y="185" width="120" height="30" as="geometry"/>
                </mxCell>
                <mxCell id="8" value="Akses()" style="text;html=1;align=center;verticalAlign=middle;resizable=0;points=[];autosize=1;strokeColor=none;fillColor=none;strokeWidth=3;fontSize=13;fontStyle=1" vertex="1" parent="1">
                    <mxGeometry x="245" y="138" width="70" height="30" as="geometry"/>
                </mxCell>
                <mxCell id="9" value="" style="endArrow=none;dashed=1;html=1;dashPattern=1 3;strokeWidth=3;fontSize=13;fontStyle=1" edge="1" parent="1">
                    <mxGeometry width="50" height="50" relative="1" as="geometry">
                        <mxPoint x="36" y="300" as="sourcePoint"/>
                        <mxPoint x="36" y="100" as="targetPoint"/>
                    </mxGeometry>
                </mxCell>
                <mxCell id="10" value="" style="rounded=0;whiteSpace=wrap;html=1;fillColor=default;strokeWidth=3;fontSize=13;fontStyle=1" vertex="1" parent="1">
                    <mxGeometry x="30" y="140" width="10" height="130" as="geometry"/>
                </mxCell>
                <mxCell id="11" value="" style="endArrow=none;dashed=1;html=1;dashPattern=1 3;strokeWidth=3;fontSize=13;fontStyle=1" edge="1" parent="1">
                    <mxGeometry width="50" height="50" relative="1" as="geometry">
                        <mxPoint x="240" y="300" as="sourcePoint"/>
                        <mxPoint x="240" y="110" as="targetPoint"/>
                    </mxGeometry>
                </mxCell>
                <mxCell id="12" value="" style="rounded=0;whiteSpace=wrap;html=1;fillColor=default;strokeWidth=3;fontSize=13;fontStyle=1" vertex="1" parent="1">
                    <mxGeometry x="235" y="146" width="10" height="104" as="geometry"/>
                </mxCell>
                <mxCell id="15" value="" style="edgeStyle=elbowEdgeStyle;elbow=horizontal;endArrow=classic;html=1;curved=0;rounded=0;endSize=8;startSize=8;strokeWidth=3;fontSize=13;fontStyle=1;entryX=1.2;entryY=0.673;entryDx=0;entryDy=0;entryPerimeter=0;exitX=0.071;exitY=0.833;exitDx=0;exitDy=0;exitPerimeter=0;" edge="1" parent="1" source="8" target="12">
                    <mxGeometry width="50" height="50" relative="1" as="geometry">
                        <mxPoint x="310" y="200" as="sourcePoint"/>
                        <mxPoint x="300" y="260" as="targetPoint"/>
                        <Array as="points">
                            <mxPoint x="312" y="170"/>
                        </Array>
                    </mxGeometry>
                </mxCell>
                <mxCell id="18" value="" style="shape=actor;whiteSpace=wrap;html=1;fillColor=none;strokeWidth=3;fontSize=13;fontStyle=1" vertex="1" parent="1">
                    <mxGeometry x="15" y="10" width="40" height="60" as="geometry"/>
                </mxCell>
                <mxCell id="20" value="USER" style="text;html=1;align=center;verticalAlign=middle;resizable=0;points=[];autosize=1;strokeColor=none;fillColor=none;fontSize=13;fontStyle=1" vertex="1" parent="1">
                    <mxGeometry x="10" y="78" width="60" height="30" as="geometry"/>
                </mxCell>
            </root>
        </mxGraphModel>
    </diagram>
</mxfile>